<mxfile host="app.diagrams.net" modified="2020-12-14T03:29:23.495Z" agent="5.0 (Macintosh; Intel Mac OS X 11_0_0) AppleWebKit/537.36 (KHTML, like Gecko) Chrome/86.0.4240.198 Safari/537.36" etag="1ZsfYMT9EAVv7bNZIqPx" version="13.11.0" type="github">
  <diagram id="LVcZ2LKyJ3NMHv71hSxo" name="第 1 页">
    <mxGraphModel dx="623" dy="589" grid="1" gridSize="10" guides="1" tooltips="1" connect="1" arrows="1" fold="1" page="1" pageScale="1" pageWidth="827" pageHeight="1169" math="0" shadow="0">
      <root>
        <mxCell id="0" />
        <mxCell id="1" parent="0" />
        <mxCell id="1WeFpbRRqpLqc4eMALIY-1" value="" style="rounded=0;whiteSpace=wrap;html=1;fillColor=#60a917;strokeColor=#2D7600;fontColor=#ffffff;" vertex="1" parent="1">
          <mxGeometry x="80" y="90" width="320" height="170" as="geometry" />
        </mxCell>
        <mxCell id="1WeFpbRRqpLqc4eMALIY-2" value="" style="rounded=0;whiteSpace=wrap;html=1;fillColor=#1ba1e2;strokeColor=#006EAF;fontColor=#ffffff;" vertex="1" parent="1">
          <mxGeometry x="80" y="280" width="320" height="130" as="geometry" />
        </mxCell>
        <mxCell id="1WeFpbRRqpLqc4eMALIY-3" value="" style="rounded=0;whiteSpace=wrap;html=1;fillColor=#d80073;strokeColor=#A50040;fontColor=#ffffff;" vertex="1" parent="1">
          <mxGeometry x="430" y="90" width="120" height="320" as="geometry" />
        </mxCell>
        <mxCell id="1WeFpbRRqpLqc4eMALIY-4" value="MAN_TYPE" style="rounded=0;whiteSpace=wrap;html=1;fillColor=#dae8fc;strokeColor=#6c8ebf;" vertex="1" parent="1">
          <mxGeometry x="90" y="130" width="150" height="50" as="geometry" />
        </mxCell>
        <mxCell id="1WeFpbRRqpLqc4eMALIY-5" value="WOMAN_TYPE" style="rounded=0;whiteSpace=wrap;html=1;fillColor=#dae8fc;strokeColor=#6c8ebf;" vertex="1" parent="1">
          <mxGeometry x="250" y="130" width="150" height="50" as="geometry" />
        </mxCell>
        <mxCell id="1WeFpbRRqpLqc4eMALIY-6" value="JVMObject.class" style="rounded=0;whiteSpace=wrap;html=1;fillColor=#dae8fc;strokeColor=#6c8ebf;" vertex="1" parent="1">
          <mxGeometry x="250" y="200" width="150" height="50" as="geometry" />
        </mxCell>
        <mxCell id="1WeFpbRRqpLqc4eMALIY-7" value="Teacher.class" style="rounded=0;whiteSpace=wrap;html=1;fillColor=#dae8fc;strokeColor=#6c8ebf;" vertex="1" parent="1">
          <mxGeometry x="90" y="200" width="150" height="50" as="geometry" />
        </mxCell>
        <mxCell id="1WeFpbRRqpLqc4eMALIY-8" value="Teacher" style="ellipse;whiteSpace=wrap;html=1;aspect=fixed;fillColor=#ffe6cc;strokeColor=#d79b00;" vertex="1" parent="1">
          <mxGeometry x="110" y="310" width="80" height="80" as="geometry" />
        </mxCell>
        <mxCell id="1WeFpbRRqpLqc4eMALIY-11" value="方法区" style="text;html=1;strokeColor=none;fillColor=none;align=center;verticalAlign=middle;whiteSpace=wrap;rounded=0;" vertex="1" parent="1">
          <mxGeometry x="215" y="100" width="40" height="20" as="geometry" />
        </mxCell>
        <mxCell id="1WeFpbRRqpLqc4eMALIY-12" value="堆" style="text;html=1;strokeColor=none;fillColor=none;align=center;verticalAlign=middle;whiteSpace=wrap;rounded=0;" vertex="1" parent="1">
          <mxGeometry x="215" y="290" width="40" height="20" as="geometry" />
        </mxCell>
        <mxCell id="1WeFpbRRqpLqc4eMALIY-13" value="栈" style="text;html=1;strokeColor=none;fillColor=none;align=center;verticalAlign=middle;whiteSpace=wrap;rounded=0;" vertex="1" parent="1">
          <mxGeometry x="470" y="100" width="40" height="20" as="geometry" />
        </mxCell>
        <mxCell id="1WeFpbRRqpLqc4eMALIY-15" value="" style="rounded=0;whiteSpace=wrap;html=1;fillColor=#a20025;strokeColor=#6F0000;fontColor=#ffffff;" vertex="1" parent="1">
          <mxGeometry x="430" y="150" width="120" height="180" as="geometry" />
        </mxCell>
        <mxCell id="1WeFpbRRqpLqc4eMALIY-16" value="&lt;font color=&quot;#ffffff&quot;&gt;虚拟机栈&lt;/font&gt;" style="text;html=1;strokeColor=none;fillColor=none;align=center;verticalAlign=middle;whiteSpace=wrap;rounded=0;" vertex="1" parent="1">
          <mxGeometry x="470" y="160" width="50" height="20" as="geometry" />
        </mxCell>
        <mxCell id="1WeFpbRRqpLqc4eMALIY-17" value="" style="rounded=0;whiteSpace=wrap;html=1;fillColor=#e3c800;strokeColor=#B09500;fontColor=#ffffff;" vertex="1" parent="1">
          <mxGeometry x="430" y="190" width="120" height="130" as="geometry" />
        </mxCell>
        <mxCell id="1WeFpbRRqpLqc4eMALIY-18" value="栈帧-main" style="text;html=1;strokeColor=none;fillColor=none;align=center;verticalAlign=middle;whiteSpace=wrap;rounded=0;" vertex="1" parent="1">
          <mxGeometry x="460" y="200" width="60" height="20" as="geometry" />
        </mxCell>
        <mxCell id="1WeFpbRRqpLqc4eMALIY-20" style="rounded=0;orthogonalLoop=1;jettySize=auto;html=1;exitX=0;exitY=0.5;exitDx=0;exitDy=0;" edge="1" parent="1" source="1WeFpbRRqpLqc4eMALIY-9" target="1WeFpbRRqpLqc4eMALIY-8">
          <mxGeometry relative="1" as="geometry" />
        </mxCell>
        <mxCell id="1WeFpbRRqpLqc4eMALIY-9" value="t1" style="ellipse;whiteSpace=wrap;html=1;aspect=fixed;fillColor=#d5e8d4;strokeColor=#82b366;" vertex="1" parent="1">
          <mxGeometry x="460" y="220" width="50" height="50" as="geometry" />
        </mxCell>
        <mxCell id="1WeFpbRRqpLqc4eMALIY-21" style="edgeStyle=none;rounded=0;orthogonalLoop=1;jettySize=auto;html=1;exitX=0;exitY=0.5;exitDx=0;exitDy=0;entryX=1;entryY=0.5;entryDx=0;entryDy=0;" edge="1" parent="1" source="1WeFpbRRqpLqc4eMALIY-10" target="1WeFpbRRqpLqc4eMALIY-19">
          <mxGeometry relative="1" as="geometry" />
        </mxCell>
        <mxCell id="1WeFpbRRqpLqc4eMALIY-10" value="t2" style="ellipse;whiteSpace=wrap;html=1;aspect=fixed;fillColor=#d5e8d4;strokeColor=#82b366;" vertex="1" parent="1">
          <mxGeometry x="460" y="270" width="50" height="50" as="geometry" />
        </mxCell>
        <mxCell id="1WeFpbRRqpLqc4eMALIY-19" value="Teacher" style="ellipse;whiteSpace=wrap;html=1;aspect=fixed;fillColor=#ffe6cc;strokeColor=#d79b00;" vertex="1" parent="1">
          <mxGeometry x="270" y="310" width="80" height="80" as="geometry" />
        </mxCell>
      </root>
    </mxGraphModel>
  </diagram>
</mxfile>
